{
  "accessors": [
    {
      "bufferView": 2,
      "componentType": 5126,
      "count": 32354,
      "max": [
        0.44786959886550903,
        -0.22633807361125946,
        0.862176775932312
      ],
      "min": [
        -0.9113944172859192,
        -3.8219430446624756,
        -1.0937275886535645
      ],
      "type": "VEC3"
    },
    {
      "bufferView": 2,
      "byteOffset": 388248,
      "componentType": 5126,
      "count": 32354,
      "max": [
        0.9999993443489075,
        0.9733477234840393,
        0.999987006187439
      ],
      "min": [
        -0.9999388456344604,
        -0.9999968409538269,
        -0.9999982118606567
      ],
      "type": "VEC3"
    },
    {
      "bufferView": 1,
      "componentType": 5126,
      "count": 32354,
      "max": [
        0.9999669790267944,
        0.9959120154380798
      ],
      "min": [
        6.0068500715715345e-06,
        2.324580009371857e-06
      ],
      "type": "VEC2"
    },
    {
      "bufferView": 0,
      "componentType": 5125,
      "count": 173436,
      "type": "SCALAR"
    },
    {
      "bufferView": 2,
      "byteOffset": 776496,
      "componentType": 5126,
      "count": 1829,
      "max": [
        0.41547486186027527,
        -0.22572459280490875,
        0.432973712682724
      ],
      "min": [
        -0.8050495386123657,
        -0.27385446429252625,
        -0.7828705906867981
      ],
      "type": "VEC3"
    },
    {
      "bufferView": 2,
      "byteOffset": 798444,
      "componentType": 5126,
      "count": 1829,
      "max": [
        0.9918903112411499,
        0.9999707341194153,
        0.975282609462738
      ],
      "min": [
        -0.9527894258499146,
        0.052221477031707764,
        -0.9778262376785278
      ],
      "type": "VEC3"
    },
    {
      "bufferView": 1,
      "byteOffset": 258832,
      "componentType": 5126,
      "count": 1829,
      "max": [
        0.0,
        0.0
      ],
      "min": [
        0.0,
        0.0
      ],
      "type": "VEC2"
    },
    {
      "bufferView": 0,
      "byteOffset": 693744,
      "componentType": 5125,
      "count": 10128,
      "type": "SCALAR"
    }
  ],
  "asset": {
    "extras": {
      "author": "Moshe Caine (https://sketchfab.com/mosheca)",
      "license": "CC-BY-4.0 (http://creativecommons.org/licenses/by/4.0/)",
      "source": "https://sketchfab.com/3d-models/beethoven-photocatch-4cb7eab775954d2081a3fc0d955c71e8",
      "title": "Beethoven - Photocatch"
    },
    "generator": "Sketchfab-11.79.0",
    "version": "2.0"
  },
  "bufferViews": [
    {
      "buffer": 0,
      "byteLength": 734256,
      "name": "floatBufferViews",
      "target": 34963
    },
    {
      "buffer": 0,
      "byteLength": 273464,
      "byteOffset": 734256,
      "byteStride": 8,
      "name": "floatBufferViews",
      "target": 34962
    },
    {
      "buffer": 0,
      "byteLength": 820392,
      "byteOffset": 1007720,
      "byteStride": 12,
      "name": "floatBufferViews",
      "target": 34962
    }
  ],
  "buffers": [
    {
      "byteLength": 1828112,
      "uri": "scene.bin"
    }
  ],
  "extensionsRequired": [
    "KHR_materials_pbrSpecularGlossiness"
  ],
  "extensionsUsed": [
    "KHR_materials_pbrSpecularGlossiness"
  ],
  "images": [
    {
      "uri": "textures/material_1_diffuse.jpeg"
    }
  ],
  "materials": [
    {
      "doubleSided": true,
      "extensions": {
        "KHR_materials_pbrSpecularGlossiness": {
          "diffuseFactor": [
            1.0,
            1.0,
            1.0,
            1.0
          ],
          "diffuseTexture": {
            "index": 0
          },
          "glossinessFactor": 0.0,
          "specularFactor": [
            0.0,
            0.0,
            0.0
          ]
        }
      },
      "name": "material_1"
    }
  ],
  "meshes": [
    {
      "name": "Object_0",
      "primitives": [
        {
          "attributes": {
            "NORMAL": 1,
            "POSITION": 0,
            "TEXCOORD_0": 2
          },
          "indices": 3,
          "material": 0,
          "mode": 4
        }
      ]
    },
    {
      "name": "Object_1",
      "primitives": [
        {
          "attributes": {
            "NORMAL": 5,
            "POSITION": 4,
            "TEXCOORD_0": 6
          },
          "indices": 7,
          "material": 0,
          "mode": 4
        }
      ]
    }
  ],
  "nodes": [
    {
      "children": [
        1
      ],
      "matrix": [
        1.1102230246251565e-15,
        6.661338147750939e-16,
        -1.0,
        0.0,
        -6.661338147750939e-16,
        -1.0,
        -1.3322676295501878e-15,
        0.0,
        -1.0,
        1.3322676295501878e-15,
        -4.440892098500623e-16,
        0.0,
        -0.3475397825241089,
        -2.139610052108765,
        1.7920703887939449,
        1.0
      ],
      "name": "Sketchfab_model"
    },
    {
      "children": [
        2,
        3
      ],
      "name": "beethoven.obj.cleaner.materialmerger.gles"
    },
    {
      "mesh": 0,
      "name": "Object_2"
    },
    {
      "mesh": 1,
      "name": "Object_3"
    }
  ],
  "samplers": [
    {
      "magFilter": 9729,
      "minFilter": 9987,
      "wrapS": 10497,
      "wrapT": 10497
    }
  ],
  "scene": 0,
  "scenes": [
    {
      "name": "Sketchfab_Scene",
      "nodes": [
        0
      ]
    }
  ],
  "textures": [
    {
      "sampler": 0,
      "source": 0
    }
  ]
}
